<svg xmlns="http://www.w3.org/2000/svg" width="1000" height="1000" style="shape-rendering:geometricPrecision;text-rendering:geometricPrecision;image-rendering:optimizeQuality;fill-rule:evenodd;clip-rule:evenodd"><path style="opacity:.975" fill="#0082ff" d="M652.5-.5h27c44.288 11.848 65.788 40.849 64.5 87-5.732 34.392-25.232 56.559-58.5 66.5-47.299 7.25-79.133-11.25-95.5-55.5-7.082-35.095 3.418-63.595 31.5-85.5 9.974-5.33 20.308-9.496 31-12.5z"/><path style="opacity:.925" fill="#fcb900" d="M288.5 1.5a91.123 91.123 0 0 1 19 1 3.646 3.646 0 0 1-1 1.5C260.065 25.991 219.565 56.158 185 94.5c-40.362 47.962-56.196 103.295-47.5 166-2.092-.061-3.592-1.061-4.5-3-29.411-49.074-31.745-99.407-7-151 35.885-63.011 90.051-98.011 162.5-105z"/><path style="opacity:.9" fill="#fcb900" d="M387.5 13.5c19.477-.629 38.144 2.871 56 10.5a42.703 42.703 0 0 1 14 9c-67.079-.182-129.412 16.485-187 50a291.008 291.008 0 0 0-42 33.5 186.615 186.615 0 0 0-9.5 13c-1.57-3.133-1.903-6.467-1-10a104.544 104.544 0 0 1 13-24A276.096 276.096 0 0 1 272.5 58c25.409-17.87 53.075-31.203 83-40 10.658-2.567 21.324-4.067 32-4.5z"/><path style="opacity:.976" fill="#0082ff" d="M999.5 43.5v27c-8.03 70.979-42.697 124.145-104 159.5-37.76 19.754-78.094 30.588-121 32.5-9.505 67.366-32.172 129.7-68 187-36.85-34.431-79.85-57.931-129-70.5a3022.667 3022.667 0 0 0-61-13.5 632.288 632.288 0 0 0 26-91c-2.606-1.152-5.273-1.318-8-.5-59.147 9.488-116.48 25.154-172 47-28.096 12.23-54.596 27.064-79.5 44.5l-2.5-1c38.614-53.085 85.947-96.919 142-131.5 24.108-13.708 49.775-23.708 77-30a663.786 663.786 0 0 1 111-16 20659.872 20659.872 0 0 1 192-4c47.736-4.171 91.403-19.504 131-46 29.939-24.367 51.106-54.867 63.5-91.5.708-.88 1.542-1.547 2.5-2z"/><path style="opacity:.921" fill="#fcb900" d="M421.5 97.5c30.959-1.633 60.126 4.7 87.5 19 25.652 13.593 47.818 31.593 66.5 54-5.737-1.028-11.071-3.528-16-7.5-37.426-17.249-76.759-26.916-118-29-65.983-1.751-131.317 3.749-196 16.5-.219-1.175.114-2.175 1-3 55.825-25.61 114.158-42.277 175-50z"/><path style="opacity:.977" fill="#fcb900" d="M69.5 146.5h3c-10.158 70.309 9.842 130.143 60 179.5 39.83 32.884 85.83 50.884 138 54l26 1c52.331-.364 104.664-.364 157 0 57.612 2.65 112.946 14.983 166 37 75.28 37.006 120.78 96.839 136.5 179.5a286.763 286.763 0 0 0 3 21 96.54 96.54 0 0 1-.5 24c-27.102-56.944-67.768-101.778-122-134.5-43.222-20.033-88.722-28.533-136.5-25.5a2045.264 2045.264 0 0 0-131.5 6.5 1393.661 1393.661 0 0 1-147 0c-34.814-2.456-68.481-9.789-101-22C65.092 441.737 30.925 399.237 18 339.5c-14.228-73.152 2.939-137.486 51.5-193z"/><path style="opacity:.98" fill="#fcb900" d="M-.5 383.5c22.375 47.217 57.042 83.05 104 107.5 37.182 16.832 76.182 27.166 117 31a1316.784 1316.784 0 0 0 210 4c43.667-.667 87.333-.667 131 0 65.545-2.075 114.878 24.758 148 80.5 24.722 44.938 33.222 92.938 25.5 144-10.308 35.912-26.308 68.912-48 99a1145.605 1145.605 0 0 1-8.5 9c-1.446-.671-2.112-1.838-2-3.5 6.612-44.017-.054-85.85-20-125.5-31.812-51.244-77.812-81.078-138-89.5a615.224 615.224 0 0 0-64-1 3792.425 3792.425 0 0 0-99 7c-72.943 4.123-141.276-11.543-205-47-47.807-26.168-87.64-61.001-119.5-104.5-16.146-26.255-26.646-54.588-31.5-85v-26z"/><path style="opacity:.96" fill="#0082ff" d="M491.5 663.5a12.93 12.93 0 0 1 5 .5c1.333 1 1.333 2 0 3-100.312 68.813-210.645 115.146-331 139a496.104 496.104 0 0 1-74.5 7.5 68.706 68.706 0 0 1-15.5-1.5 1467.55 1467.55 0 0 0 166-96 1530.634 1530.634 0 0 0 52-39c21.005.862 42.005.529 63-1a3574.728 3574.728 0 0 1 135-12.5z"/><path style="opacity:.924" fill="#fcb900" d="M481.5 999.5h-26c-.111-.617-.444-1.117-1-1.5 42.197-20.185 80.03-46.685 113.5-79.5 46.847-49.953 66.347-109.286 58.5-178a14.972 14.972 0 0 1 3.5 3c31.446 52.199 32.446 104.865 3 158-34.785 56.561-85.285 89.228-151.5 98z"/><path style="opacity:.92" fill="#fcb900" d="M187.5 829.5c50.026 27.254 103.693 39.921 161 38a882.217 882.217 0 0 0 161-15.5 16.242 16.242 0 0 1 8 0 52.475 52.475 0 0 1-10 6 1428.728 1428.728 0 0 1-87 31 772.973 772.973 0 0 1-58 12c-47.001 7.475-90.001-2.025-129-28.5-15.92-11.184-30.42-23.85-43.5-38a19.177 19.177 0 0 1-2.5-5z"/><path style="opacity:.9" fill="#fcb900" d="M543.5 872.5h3c-2.844 15.354-9.677 28.687-20.5 40-31.444 31.486-68.278 54.32-110.5 68.5-31.767 9.537-63.1 8.537-94-3-5.691-2.213-10.691-5.38-15-9.5 46.71.447 91.71-8.053 135-25.5 30.824-11.646 58.824-28.146 84-49.5a135.298 135.298 0 0 0 18-21z"/></svg>